<?xml version="1.0" standalone="no"?><!DOCTYPE svg PUBLIC "-//W3C//DTD SVG 1.1//EN" "http://www.w3.org/Graphics/SVG/1.1/DTD/svg11.dtd"><svg t="1768307798356" class="icon" viewBox="0 0 1024 1024" version="1.1" xmlns="http://www.w3.org/2000/svg" p-id="5171" xmlns:xlink="http://www.w3.org/1999/xlink" width="48" height="48"><path d="M822.186667 199.68a76.373333 76.373333 0 0 0-68.266667-10.666667 321.28 321.28 0 0 1-92.586667 11.946667 364.373333 364.373333 0 0 1-133.546666-33.28A433.066667 433.066667 0 0 0 362.666667 128c-123.306667 0-170.666667 42.666667-179.2 48.64a42.666667 42.666667 0 0 0-12.8 30.72V853.333333a42.666667 42.666667 0 0 0 85.333333 0v-183.466666a267.946667 267.946667 0 0 1 106.666667-17.493334 364.373333 364.373333 0 0 1 133.546666 33.28 433.066667 433.066667 0 0 0 165.12 39.68 326.826667 326.826667 0 0 0 149.333334-29.866666 74.24 74.24 0 0 0 42.666666-66.133334V260.693333a75.52 75.52 0 0 0-31.146666-61.013333z" p-id="5172" fill="#b25347"></path></svg>