<?xml version="1.0" standalone="no"?><!DOCTYPE svg PUBLIC "-//W3C//DTD SVG 1.1//EN" "http://www.w3.org/Graphics/SVG/1.1/DTD/svg11.dtd"><svg t="1768308646639" class="icon" viewBox="0 0 1024 1024" version="1.1" xmlns="http://www.w3.org/2000/svg" p-id="12287" xmlns:xlink="http://www.w3.org/1999/xlink" width="48" height="48"><path d="M978.74 73.2c16.22 7.93 30.85 14.53 44.71 21.22-42.2 90.06-159.05 106.1-225.73 33.4-11.87-12.68-21.51-26.45-34.04-38.43-47.83-45.14-117.01-28.86-141.16 34.47 19.06 8.17 38.9 16.25 58.22 25.16 32.22 14.34 42.46 37.33 28.78 69.84-10.33 25.7-26.44 39.43-39.3 67.53-73.07-61.8-148.72-89.88-245.43-101.44 14.45-32.6 23.09-57.54 37.84-86.61 10.98-20.84 33.14-27.32 58.14-19.15 15.83 5.03 31.17 12.31 48.67 19.29 4.69-8.51 9.32-17.04 14.08-24.81C629.72-2.5 733.2-16.96 797.47 44.61c10.72 10.05 20.12 20.9 29.39 31.92 49.13 54.57 104.69 53.74 151.88-3.33z m0 0" fill="#2c2c2c" p-id="12288"></path><path d="M395.34 204.49C178.9 204.49 3.45 379.95 3.45 596.38c0 216.43 175.45 391.89 391.89 391.89s391.89-175.45 391.89-391.89c0-216.43-175.46-391.89-391.89-391.89z m-14.08 742.76c-0.39 0.09-0.6 0.13-0.6 0.13 0.21-0.04 0.4-0.08 0.6-0.13 13.31-2.9 247.66-58.02 338.34-368.44 0.01 0.01 69.65 284.07-338.34 368.44z" fill="#2c2c2c" p-id="12289"></path></svg>