<?xml version="1.0" standalone="no"?><!DOCTYPE svg PUBLIC "-//W3C//DTD SVG 1.1//EN" "http://www.w3.org/Graphics/SVG/1.1/DTD/svg11.dtd"><svg t="1768309981274" class="icon" viewBox="0 0 1024 1024" version="1.1" xmlns="http://www.w3.org/2000/svg" p-id="15380" xmlns:xlink="http://www.w3.org/1999/xlink" width="48" height="48"><path d="M1000.600009 192.759928L831.240072 23.399991c-31.179988-31.179988-81.93997-31.179988-113.119958 0l-65.339976 65.339976c-37.879986 37.879986-58.499978 88.619967-58.499979 141.099948 0 13.059995 1.28 26.25999 3.899999 39.379985 3.479999 17.379994 9.499996 33.679988 17.059994 49.059982L394.720234 538.7798l-90.519967-90.519966c-24.999991-24.999991-65.519976-24.999991-90.499966 0l-135.75995 135.759949C-22.039612 683.999746-12.579615 946.059649 32.680368 991.319632c45.259983 45.259983 307.319886 54.71998 407.299849-45.259983l135.759949-135.75995c24.999991-24.999991 24.999991-65.519976 0-90.499966l-90.519966-90.519967 220.519918-220.519918c15.399994 7.579997 31.739988 13.599995 49.139982 17.079994 65.619976 13.119995 133.059951-7.279997 180.379933-54.59998l65.339976-65.339976c31.199988-31.199988 31.199988-81.93997 0-113.139958z m-155.839942 87.979968a71.739973 71.739973 0 0 1-64.839976 19.599993c-28.459989-5.719998-50.539981-27.81999-56.25998-56.33998-4.659998-23.659991 2.619999-47.819982 19.599993-64.759976l31.399989-31.399988 101.499962 101.499962-31.399988 31.399989z" p-id="15381" fill="#7b738b"></path></svg>